<svg xmlns="http://www.w3.org/2000/svg" viewBox="0 0 64 64">
  <defs>
    <linearGradient id="leafGradient" x1="0%" y1="0%" x2="0%" y2="100%">
      <stop offset="0%" stop-color="#52c41a"/>
      <stop offset="100%" stop-color="#17803d"/>
    </linearGradient>
    <filter id="shadow" x="-20%" y="-20%" width="140%" height="140%">
      <feDropShadow dx="0" dy="2" stdDeviation="2" flood-color="#0b3a22" flood-opacity="0.6"/>
    </filter>
  </defs>
  <rect width="64" height="64" rx="16" fill="#051b11"/>
  <g filter="url(#shadow)">
    <path d="M32 6
             C30 14 29 19 28 23
             C24 20 20 18 18 18
             C20 24 22 30 24 34
             C19 33 15 33 12 34
             C16 39 20 43 24 46
             C20 48 17 52 16 56
             C22 55 27 53 30 52
             V58
             H34
             V52
             C37 53 42 55 48 56
             C47 52 44 48 40 46
             C44 43 48 39 52 34
             C49 33 45 33 40 34
             C42 30 44 24 46 18
             C44 18 40 20 36 23
             C35 19 34 14 32 6 Z"
          fill="url(#leafGradient)"/>
    <path d="M32 14 L32 48" stroke="#d5ffd0" stroke-width="2" stroke-linecap="round"/>
    <path d="M24 26 L32 34" stroke="#d5ffd0" stroke-width="2" stroke-linecap="round"/>
    <path d="M40 26 L32 34" stroke="#d5ffd0" stroke-width="2" stroke-linecap="round"/>
    <path d="M22 38 L32 44" stroke="#d5ffd0" stroke-width="2" stroke-linecap="round"/>
    <path d="M42 38 L32 44" stroke="#d5ffd0" stroke-width="2" stroke-linecap="round"/>
  </g>
</svg>
